<?xml version="1.0" encoding="UTF-8"?>
<svg width="56px" height="56px" viewBox="0 0 56 56" version="1.1" xmlns="http://www.w3.org/2000/svg" xmlns:xlink="http://www.w3.org/1999/xlink">
    <title>5-organism/logo-agence/particulier logo/medium</title>
    <defs>
        <path d="M31.369022,37.5753774 C32.8825313,39.9209011 35.0978825,41.7413991 37.7119702,42.765578 C39.2526503,43.4980386 40.85906,44.0826517 42.5096957,44.5115915 C45.072764,45.3256883 47.0197889,45.9911392 48.3219286,47.259547 C43.2199685,52.6432951 36.0019845,56 28,56 C19.9622147,56 12.7154607,52.6131921 7.60895764,47.1887959 C8.89859961,45.9317287 10.822368,45.321891 13.3520898,44.5974611 C15.0289639,44.1515572 16.6631465,43.5576921 18.2354891,42.8228244 C20.7331763,41.8442502 22.8668464,40.1386953 24.371722,37.9430195 C25.4404428,38.2796939 26.5726824,38.4246683 27.7167086,38.3576094 L27.7167086,38.3576094 L27.8023823,38.1572472 C28.9646674,38.197744 30.1102734,38.0188543 31.1845996,37.642824 L31.1845996,37.642824 Z M28,0 C43.463973,0 56,12.536027 56,28 C56,34.4103142 53.8458478,40.3174992 50.2219455,45.0371528 C48.321643,43.2400687 45.733215,42.4677657 43.3378745,41.763767 C41.832337,41.3695022 40.3614688,40.8525642 38.9399594,40.2181156 C36.8804213,39.3995517 35.1153306,37.9893625 33.8621463,36.1726972 C34.2019809,35.9048267 34.5247776,35.611842 34.8276233,35.2949299 C39.0827489,30.7438455 38.2260122,22.1568937 38.2260122,21.6989229 C38.3878894,18.8003915 37.3015762,15.9714899 35.2425846,13.9296875 C33.183593,11.8878851 30.349717,10.8293246 27.4596876,11.0224795 L27.4596876,11.0224795 L27.1297327,11.018716 C24.3844362,11.0320114 21.7553861,12.1584366 19.8471406,14.1496446 C17.8625653,16.2205009 16.8418308,19.0344787 17.0360577,21.8992851 C16.9789419,22.2713863 16.179321,30.8583382 20.4344466,35.4952921 C20.8431758,35.9220818 21.2877601,36.3054882 21.7627266,36.6425631 C20.5172829,38.2319747 18.8687227,39.4692712 16.9789419,40.2181156 C15.5565615,40.8428002 14.085713,41.3501585 12.5810268,41.7351438 C10.2043392,42.4515711 7.63755956,43.2016207 5.74131364,44.9881446 C2.13958999,40.2774927 0,34.3886104 0,28 C0,12.536027 12.536027,0 28,0 Z M21.9454331,16.097046 C23.4550217,14.5509947 25.5630582,13.7429408 27.7167086,13.8847967 C31.0579817,13.8847967 35.1132022,15.2873322 35.5130126,21.6989229 C35.4989021,21.8033981 35.4989021,21.9093026 35.5130126,22.0137778 C35.5130126,22.1855168 36.1127283,29.7706576 32.6572236,33.4630469 C31.3393802,34.7886368 29.5246764,35.4953908 27.6595928,35.4094226 C25.7294375,35.5345404 23.8443617,34.7892829 22.5191726,33.3771774 C19.1493415,29.8565271 19.8632888,22.2713863 19.8632888,21.9279083 C19.6753131,19.7728986 20.4358444,17.6430973 21.9454331,16.097046 Z" id="path-1"></path>
    </defs>
    <g id="Symbols" stroke="none" stroke-width="1" fill="none" fill-rule="evenodd">
        <g id="Formulaire-contact/right-column/loueur-particulier/desktop" transform="translate(-76.000000, -64.000000)">
            <g id="title" transform="translate(24.000000, 24.000000)">
                <g id="agence" transform="translate(52.000000, 40.000000)">
                    <g id="5-organism/logo-agence/particulier-logo/medium">
                        <mask id="mask-2" fill="white">
                            <use xlink:href="#path-1"></use>
                        </mask>
                        <use id="particulier" fill="#7FBFCE" fill-rule="evenodd" xlink:href="#path-1"></use>
                    </g>
                </g>
            </g>
        </g>
    </g>
</svg>